/* XPM */
static char *result[] = {
/* columns rows colors chars-per-pixel */
"32 32 146 2 ",
"   c #2E7D2E",
".  c #2F7C2F",
"X  c #2E7E2E",
"o  c #317B31",
"O  c #327A32",
"+  c #327C32",
"@  c #337D33",
"#  c #357835",
"$  c #496C4A",
"%  c #427042",
"&  c #427043",
"*  c #655C65",
"=  c #645D66",
"-  c #6F566F",
";  c #695A68",
":  c #6B586C",
">  c #6C586D",
",  c #705670",
"<  c #6A756B",
"1  c #6D736E",
"2  c #707871",
"3  c #787179",
"4  c #79727A",
"5  c #E85607",
"6  c #EA5807",
"7  c #EA5907",
"8  c #EA5A07",
"9  c #EB5B07",
"0  c #EC5E07",
"q  c #EE5E14",
"w  c #ED6107",
"e  c #ED6207",
"r  c #EF6408",
"t  c #F16B08",
"y  c #F57208",
"u  c #F57408",
"i  c #F57508",
"p  c #F6760C",
"a  c #F7770C",
"s  c #F67808",
"d  c #F77908",
"f  c #F87B08",
"g  c #F97B09",
"h  c #F97E09",
"j  c #F97F09",
"k  c #FD7F15",
"l  c #FD7D16",
"z  c #FA7819",
"x  c #FD781F",
"c  c #EC4C2F",
"v  c #ED5124",
"b  c #F36121",
"n  c #FD7820",
"m  c #FC6C36",
"M  c #FC6A39",
"N  c #FC693C",
"B  c #FC693D",
"V  c #F55051",
"C  c #F85550",
"Z  c #FD5B58",
"A  c #FD634B",
"S  c #FD614D",
"D  c #FD604E",
"F  c #FC4D72",
"G  c #FC4C74",
"H  c #FC477D",
"J  c #388037",
"K  c #358E35",
"L  c #398038",
"P  c #399739",
"I  c #40A13F",
"U  c #40A33F",
"Y  c #429F42",
"T  c #439F42",
"R  c #449E43",
"E  c #469D45",
"W  c #459E44",
"Q  c #489C46",
"!  c #4E954D",
"~  c #5E875F",
"^  c #5E885F",
"/  c #E5870C",
"(  c #FA8209",
")  c #FB8209",
"_  c #FB8309",
"`  c #FB8409",
"'  c #FD8509",
"]  c #963E98",
"[  c #973E99",
"{  c #AE3F94",
"}  c #B03E96",
"|  c #AB32AC",
" . c #AB32AD",
".. c #AC31AE",
"X. c #BC27BE",
"o. c #BA28BC",
"O. c #B631B9",
"+. c #B532B8",
"@. c #FC3E8D",
"#. c #FC349F",
"$. c #FA2EA8",
"%. c #FB2FA8",
"&. c #FC32A1",
"*. c #FB27B7",
"=. c #FB2AB2",
"-. c #FB28B5",
";. c #FB27B8",
":. c #FB25BB",
">. c #9A549B",
",. c #AC46AE",
"<. c #FC4680",
"1. c #FC4189",
"2. c #CE1DD1",
"3. c #CF1ED2",
"4. c #D11BD4",
"5. c #D21BD5",
"6. c #D31BD5",
"7. c #D31AD6",
"8. c #F914CF",
"9. c #FC1FC9",
"0. c #FC1BD0",
"q. c #FC19D3",
"w. c #FC19D5",
"e. c #EB0BEF",
"r. c #F80CE1",
"t. c #FB0FE7",
"y. c #F909EA",
"u. c #FB0CEE",
"i. c #E415E8",
"p. c #FB13E1",
"a. c #FC13E0",
"s. c #FB10E5",
"d. c #EC0BF0",
"f. c #EE09F2",
"g. c #EF0BF4",
"h. c #F008F4",
"j. c #FB0AF1",
"k. c #F405F8",
"l. c #F405F9",
"z. c #F406F8",
"x. c #F506F9",
"c. c #FB03FC",
"v. c #FB03FD",
"b. c #FA03FE",
"n. c #FB02FF",
"m. c #F904FD",
/* pixels */
"n.n.n.n.n.n.n.n.n.n.n.n.n.n.n.n.n.n.n.n.n.n.n.n.n.n.n.n.n.n.n.n.",
"n.n.n.n.n.n.n.n.n.n.n.n.n.n.n.n.n.n.n.n.n.n.n.n.n.n.n.n.n.n.n.n.",
"n.n.n.n.n.n.n.n.n.n.n.n.n.n.n.n.n.n.n.n.n.n.n.n.n.n.n.n.n.n.n.n.",
"n.n.n.n.n.n.n.n.n.n.n.n.n.n.n.n.n.h...[ 6.n.n.n.n.n.n.n.n.n.n.n.",
"n.n.n.n.n.n.n.n.n.n.n.n.n.n.n.n.n. .X X $ 2.n.n.n.3 ~ ^ n.n.n.n.",
"n.n.n.n.n.n.n.n.n.n.n.n.n.n.n.n.n.X.% X X = n.n.2 W U ! b.n.n.n.",
"n.n.n.n.n.n.n.n.n.n.n.n.n.n.n.n.n., . X X # 4.,.Q U T 4 m.n.n.n.",
"n.n.n.n.n.n.n.n.n.n.n.n.n.n.n.n.n.k.; X X   O.Y U U R i.n.n.n.n.",
"n.n.n.n.n.n.n.n.n.n.n.n.n.n.n.n.n.n.d.: X   < U I >.g.n.n.n.n.n.",
"n.n.n.n.n.n.n.n.n.n.n.n.n.n.n.n.n.n.n.f.O L E 1 +.5.n.n.n.n.n.n.",
"n.n.n.n.n.n.n.n.n.n.n.n.n.n.s.@.<.;.v.x.+ P J     # * 3.n.n.n.n.",
"n.n.n.n.n.n.n.n.n.n.n.n.n.8.z ' ' ' B } K @ o X X X X $ 7.n.n.n.",
"n.n.n.n.n.n.n.n.n.n.n.n.u.v 0 ( ' ' ' / { l.f.> X X X X ] n.n.n.",
"n.n.n.n.n.n.n.n.n.n.n.n.Z j 9 i ' ' ' ' B v.n.e.; . & X  .n.n.n.",
"n.n.n.n.n.n.n.n.n.n.n.&.' ' ` ' ' ' ' ' ' *.n.n.z.- o.| h.n.n.n.",
"n.n.n.n.n.n.n.n.n.n.r.q _ ' ' ' ' ' ' ' ' H n.n.n.n.n.n.n.n.n.n.",
"n.n.n.n.n.n.n.n.n.n.C 6 e _ ' ' ` d ` ' ' 1.n.n.n.n.n.n.n.n.n.n.",
"n.n.n.n.n.n.n.n.n.%.' f 6 e _ ' h 5 t ` k a.n.n.n.n.n.n.n.n.n.n.",
"n.n.n.n.n.n.n.n.j.n ' ' f 6 u ' ' y 5 b 9.n.n.n.n.n.n.n.n.n.n.n.",
"n.n.n.n.n.n.n.n.F ' ' ' ' ) ` ' ' ' V y.n.n.n.n.n.n.n.n.n.n.n.n.",
"n.n.n.n.n.n.n.q.a 8 g ' ' ' ' ' l #.n.n.n.n.n.n.n.n.n.n.n.n.n.n.",
"n.n.n.n.n.n.n.A _ w 7 g ' ' ' D p.n.n.n.n.n.n.n.n.n.n.n.n.n.n.n.",
"n.n.n.n.n.n.-.' ' _ w 8 ` x %.n.n.n.n.n.n.n.n.n.n.n.n.n.n.n.n.n.",
"n.n.n.n.n.c.c h ' ' _ p G j.n.n.n.n.n.n.n.n.n.n.n.n.n.n.n.n.n.n.",
"n.n.n.n.n.$.r s ' ' S w.n.n.n.n.n.n.n.n.n.n.n.n.n.n.n.n.n.n.n.n.",
"n.n.n.n.n.m ' ' M :.n.n.n.n.n.n.n.n.n.n.n.n.n.n.n.n.n.n.n.n.n.n.",
"n.n.n.n.0.' N =.n.n.n.n.n.n.n.n.n.n.n.n.n.n.n.n.n.n.n.n.n.n.n.n.",
"n.n.n.n.t.q.n.n.n.n.n.n.n.n.n.n.n.n.n.n.n.n.n.n.n.n.n.n.n.n.n.n.",
"n.n.n.n.n.n.n.n.n.n.n.n.n.n.n.n.n.n.n.n.n.n.n.n.n.n.n.n.n.n.n.n.",
"n.n.n.n.n.n.n.n.n.n.n.n.n.n.n.n.n.n.n.n.n.n.n.n.n.n.n.n.n.n.n.n.",
"n.n.n.n.n.n.n.n.n.n.n.n.n.n.n.n.n.n.n.n.n.n.n.n.n.n.n.n.n.n.n.n.",
"n.n.n.n.n.n.n.n.n.n.n.n.n.n.n.n.n.n.n.n.n.n.n.n.n.n.n.n.n.n.n.n."
};
