/* XPM */
static char *result[] = {
/* columns rows colors chars-per-pixel */
"32 32 247 2 ",
"   c #37261D",
".  c #36271F",
"X  c #26292C",
"o  c #272A2D",
"O  c #2E2D2D",
"+  c #352A24",
"@  c #382920",
"#  c #3C2B20",
"$  c #3D2B20",
"%  c #3C2C21",
"&  c #3C2D23",
"*  c #3B2E24",
"=  c #302E2D",
"-  c #392F28",
";  c #35302B",
":  c #33302D",
">  c #363331",
",  c #343333",
"<  c #313236",
"1  c #3E3A37",
"2  c #37393C",
"3  c #422C1D",
"4  c #402C1E",
"5  c #492A18",
"6  c #522D16",
"7  c #532D16",
"8  c #592E14",
"9  c #5A2E14",
"0  c #612A0D",
"q  c #632A0C",
"w  c #642A0C",
"e  c #45372A",
"r  c #46372A",
"t  c #433A2E",
"y  c #44392D",
"u  c #45392D",
"i  c #463A2D",
"p  c #4A3A2E",
"a  c #4B3D2F",
"s  c #4B3E2F",
"d  c #4D3E2E",
"f  c #513E2C",
"g  c #4D2F3E",
"h  c #493E33",
"j  c #493F34",
"k  c #4E3438",
"l  c #4F3439",
"z  c #56422D",
"x  c #55412E",
"c  c #5B432E",
"v  c #5C432E",
"b  c #4F4131",
"n  c #4F4231",
"m  c #494034",
"M  c #4D4134",
"N  c #574633",
"B  c #584432",
"V  c #5C4831",
"C  c #5C4931",
"Z  c #5E4931",
"A  c #5E4A31",
"S  c #5D4832",
"D  c #534A3F",
"F  c #5F4D3F",
"G  c #61472D",
"H  c #64482D",
"J  c #64492D",
"K  c #6F4E2D",
"L  c #724F2D",
"P  c #76512D",
"I  c #7D542D",
"U  c #7E552D",
"Y  c #664E33",
"T  c #6F4F30",
"R  c #66503A",
"E  c #715434",
"W  c #725534",
"Q  c #745634",
"!  c #795835",
"~  c #7C5A35",
"^  c #7E5B34",
"/  c #7E5B35",
"(  c #3C2441",
")  c #412940",
"_  c #512C4B",
"`  c #542C4B",
"'  c #523141",
"]  c #533042",
"[  c #503842",
"{  c #513842",
"}  c #553E53",
"|  c #621F67",
" . c #641F67",
".. c #651C69",
"X. c #641D69",
"o. c #681E6D",
"O. c #6D1D6F",
"+. c #6D1D70",
"@. c #6E1D72",
"#. c #751A79",
"$. c #761B7A",
"%. c #78197D",
"&. c #791A7E",
"*. c #5F2761",
"=. c #5F2860",
"-. c #5F2861",
";. c #612361",
":. c #594540",
">. c #5C5246",
",. c #5D5754",
"<. c #6E5942",
"1. c #62514C",
"2. c #63514D",
"3. c #615C57",
"4. c #625C57",
"5. c #706250",
"6. c #7E6C57",
"7. c #706A62",
"8. c #6D6F71",
"9. c #797B7D",
"0. c #83572E",
"q. c #83582E",
"w. c #84582E",
"e. c #86592E",
"r. c #87592E",
"t. c #885A2E",
"y. c #8B5B2E",
"u. c #8B5C2E",
"i. c #815D35",
"p. c #9B632E",
"a. c #9F652E",
"s. c #896236",
"d. c #8B6236",
"f. c #9D6833",
"g. c #9E6933",
"h. c #A3672F",
"j. c #AE6C2E",
"k. c #AF6C2E",
"l. c #B06D2E",
"z. c #B26E2E",
"x. c #B56F2E",
"c. c #B6702F",
"v. c #A86F34",
"b. c #A06E38",
"n. c #A57138",
"m. c #A87238",
"M. c #AC7439",
"N. c #AC7539",
"B. c #B87331",
"V. c #B97432",
"C. c #B97532",
"Z. c #BC7733",
"A. c #BD7734",
"S. c #BE7935",
"D. c #B07739",
"F. c #B3783A",
"G. c #B4793A",
"H. c #B77C3A",
"J. c #B87C3A",
"K. c #BA7D3A",
"L. c #BB7D3A",
"P. c #BC7D3A",
"I. c #BD7E3B",
"U. c #BE7F3B",
"Y. c #C27D37",
"T. c #93714E",
"R. c #947D61",
"E. c #957E62",
"W. c #967E62",
"Q. c #BF803B",
"!. c #C48139",
"~. c #C5823A",
"^. c #C6833B",
"/. c #C1813C",
"(. c #C8843C",
"). c #C9853E",
"_. c #C9863F",
"`. c #A98D6B",
"'. c #A98F6E",
"]. c #AD906D",
"[. c #AF916D",
"{. c #A79175",
"}. c #CA8740",
"|. c #CA8841",
" X c #CB8A43",
".X c #CC8B45",
"XX c #CC8B46",
"oX c #CF8F4A",
"OX c #D1904C",
"+X c #D79C5F",
"@X c #D69C61",
"#X c #DC9F61",
"$X c #DCA062",
"%X c #DDA163",
"&X c #C1A077",
"*X c #7D1882",
"=X c #821787",
"-X c #89168D",
";X c #8A168E",
":X c #8A178E",
">X c #931498",
",X c #99139D",
"<X c #9A139F",
"1X c #9B139F",
"2X c #9C13A1",
"3X c #A211A6",
"4X c #AA10AE",
"5X c #AB0FB0",
"6X c #AC0FB2",
"7X c #B30EB7",
"8X c #B40FB8",
"9X c #B70EBB",
"0X c #BA0DBF",
"qX c #AB10B0",
"wX c #BC0CC1",
"eX c #BD0CC2",
"rX c #C00BC4",
"tX c #CB0BD0",
"yX c #CC0AD0",
"uX c #CE0AD3",
"iX c #D00AD3",
"pX c #D109D4",
"aX c #D109D5",
"sX c #D00AD4",
"dX c #E007E3",
"fX c #E006E4",
"gX c #E506E9",
"hX c #E606EB",
"jX c #E905ED",
"kX c #EC04F1",
"lX c #F203F6",
"zX c #F204F6",
"xX c #F503F9",
"cX c #F703FB",
"vX c #F702FC",
"bX c #F703FC",
"nX c #F802FC",
"mX c #FA02FE",
"MX c #FB02FF",
"NX c #AA9D8C",
"BX c #D1B897",
"VX c #E0B888",
"CX c #EAC79A",
"ZX c #F5D6AD",
"AX c #F7D8AF",
"SX c #EAD3B4",
"DX c #F8DCB5",
/* pixels */
"MXMXMXMXMXMXMXMXlXMXMXMXMXMXMXMXMXMXMXMXMXMXMXlXMXMXMXMXMXMXMXMX",
"MXMXMXMXMXMXMXhX) 3XMXMXMXMXMXMXMXMXMXMXMXMX3X) hXMXMXMXMXMXMXMX",
"MXMXMXMXMXMXMX@.f.B yXMXMXMXMXMXMXMXMXMXMXyXB g.@.MXMXMXMXMXMXMX",
"MXMXMXMXMXMXsXc Z.J.;.MXMXMXMXMXMXMXMXMXMX;.H.Z.v uXMXMXMXMXMXMX",
"MXMXMXMXMXMX$.a.Z.(.S dXMXMXMXMXMXMXMXMXdXS (.Z.a.#.MXMXMXMXMXMX",
"MXMXMXMXMXbXl c.A.(.s.4XMXMXMXMXMXMXMXMX4Xs.(.A.c.k bXMXMXMXMXMX",
"MXMXMXMXMXpXH x.T I.n.;XMXMXMXrXrXMXMXMX;Xn.I.T x.J iXMXMXMXMXMX",
"MXMXMXMXMX6XU I @ Z D.*X9XtXeX:.:.wXtX9X*XD.A @ I U 5XMXMXMXMXMX",
"MXMXMXMXMX2Xy.r 0 + m.%.[ <.F @X@XF <.{ &.m.+ 0 e u.1XMXMXMXMXMX",
"MXMXMXMXMX,Xt.% w   i.( T.%X%X#X#X%X%XT.( i.  w % t.,XMXMXMXMXMX",
"MXMXMXMXMX4XL 4 w . Y > +X$X#X.X.X#X$X+X> Y . w 4 L 4XMXMXMXMXMX",
"MXMXMXMXMXuXG & q - b T.oX}. X(.(. X}.oXT.n - q & G uXMXMXMXMXMX",
"MXMXMXMXMXnXg f 5 V N _.(.(.(.(.(.(.(.(._.N C 5 f g nXMXMXMXMXMX",
"MXMXMXMXMXMX..P s L.U.(.(.(.(.(.(.(.(.(.(.U.P.s P X.MXMXMXMXMXMX",
"MXMXMXMXMXwXR v.S.(.(.(.(.(.(.(.(.(.(.(.(.(.(.S.v.R 0XMXMXMXMXMX",
"MXMXMXMXvX` /.^.!.(.(.(.(.(.(.(.(.(.(.(.(.(.(.!.^./._ cXMXMXMXMX",
"MXMXMXMX8X~ (.(.(.(.(.(.(.(.(.(.(.(.(.(.(.(.(.(.(.(.~ 7XMXMXMXMX",
"MXMXMXMX+.K.(.(.(.(.(.(.(.(.(.(.(.(.(.(.(.(.(.(.(.(.K.O.MXMXMXMX",
"MXMXMXMX] ~.(.(.(.b.d.L.(.(.(.(.(.(.(.(.L.d.b.(.(.(.~.' MXMXMXMX",
"MXMXMXmXp V.^.(.E < X : G.(.|.OXOX|.(.F.1 o X W (.^.V.p mXMXMXMX",
"MXMXMXkXu c.C.^., 9.X X Q XX$X%X%X$XXXQ 8.2 X O ^.C.c.u kXMXMXMX",
"MXMXMXqX= z.c.B.; 6 9 $ / (.(.).).(.(./ # 8 7 ; B.c.z.= qXMXMXMX",
"MXMXMX>X>.0.c.c.w.* 3 d Q.(.N.t t M.(.Q.d 3 * q.c.c.0.>.>XMXMXMX",
"MXMXMXqXR.j l.c.c.j.h.Z.Y.^ U.! ! U.^ Y.Z.h.j.c.c.l.j R.qXMXMXMX",
"MXMXMXjX2.`.z x.c.c.c.c.c.r.y i i y e.c.c.c.c.c.x.z `.1.jXMXMXMX",
"MXMXMXMX:X].W.x k.c.c.c.c.c.c.c.c.c.c.c.c.c.c.k.x E.].-XMXMXMXMX",
"MXMXMXMXxX=.&X[.m e.x.c.c.c.c.c.c.c.c.c.c.x.e.m [.&X=.xXMXMXMXMX",
"MXMXMXMXMXkX*.{.VX6.h K p.x.c.c.c.c.x.p.K h 6.VX{.-.kXMXMXMXMXMX",
"MXMXMXMXMXMXxX=X4.BXCX'.5.D M s a M D 5.'.CXBX4.=XxXMXMXMXMXMXMX",
"MXMXMXMXMXMXMXMXaXo.,.NXSXDXAXZXZXAXDXSXNX,.o.aXMXMXMXMXMXMXMXMX",
"MXMXMXMXMXMXMXMXMXMXfX<X| } 3.7.7.3.}  .<XfXMXMXMXMXMXMXMXMXMXMX",
"MXMXMXMXMXMXMXMXMXMXMXMXMXMXlXgXgXzXMXMXMXMXMXMXMXMXMXMXMXMXMXMX"
};
