/* XPM */
static char *result[] = {
/* columns rows colors chars-per-pixel */
"32 32 162 2 ",
"   c #645A21",
".  c #6B4B38",
"X  c #7A543B",
"o  c #7C6F25",
"O  c #7B633C",
"+  c #62404D",
"@  c #64424E",
"#  c #645641",
"$  c #665842",
"%  c #675942",
"&  c #695A41",
"*  c #6A5A41",
"=  c #685A42",
"-  c #695A42",
";  c #6B5C42",
":  c #6A5C43",
">  c #6B5C43",
",  c #6C5D43",
"<  c #6F5E43",
"1  c #6D5E44",
"2  c #6F5E44",
"3  c #705F44",
"4  c #6E4654",
"5  c #6B4658",
"6  c #774E58",
"7  c #7C5457",
"8  c #736143",
"9  c #716044",
"0  c #706045",
"q  c #716045",
"w  c #716145",
"e  c #726145",
"r  c #726146",
"t  c #736246",
"y  c #766447",
"u  c #7C6C44",
"i  c #736348",
"p  c #796649",
"a  c #796749",
"s  c #7A684B",
"d  c #7E6A48",
"f  c #7F6A48",
"g  c #7C694A",
"h  c #7F7058",
"j  c #886C3F",
"k  c #896C3F",
"l  c #9A7033",
"z  c #852E78",
"x  c #852E79",
"c  c #815A57",
"v  c #815A58",
"b  c #835A59",
"n  c #845B5A",
"m  c #865C5B",
"M  c #87585D",
"N  c #895B5E",
"B  c #8A5B5E",
"V  c #8A5C5E",
"C  c #8B5C5E",
"Z  c #816D4C",
"A  c #826E4C",
"S  c #826E4D",
"D  c #807148",
"F  c #88754E",
"G  c #977843",
"H  c #987843",
"J  c #8D7750",
"K  c #807159",
"L  c #917A51",
"P  c #937A51",
"I  c #917A52",
"U  c #987F55",
"Y  c #875E69",
"T  c #8C6065",
"R  c #8B636B",
"E  c #8D626D",
"W  c #90656E",
"Q  c #91656F",
"!  c #92666F",
"~  c #A29215",
"^  c #A09226",
"/  c #C0AE1D",
"(  c #9A9149",
")  c #AC8B53",
"_  c #A88B5A",
"`  c #A98B5A",
"'  c #A98B5B",
"]  c #A98C5B",
"[  c #B29158",
"{  c #B3945F",
"}  c #B79760",
"|  c #BC9B62",
" . c #BC9C62",
".. c #BE9C62",
"X. c #BE9C63",
"o. c #BF9D63",
"O. c #BF9E67",
"+. c #C29B59",
"@. c #C39C5A",
"#. c #C09E63",
"$. c #C19E64",
"%. c #C5A165",
"&. c #C8A160",
"*. c #C9A360",
"=. c #CEA869",
"-. c #CFA969",
";. c #D1AA69",
":. c #D2AA69",
">. c #D2AC6A",
",. c #D4AD6A",
"<. c #D4AD6B",
"1. c #D4AE6B",
"2. c #D5AE6B",
"3. c #D6AE6B",
"4. c #D3AD6E",
"5. c #D6AF6C",
"6. c #D4AF6F",
"7. c #D8AF6C",
"8. c #D8B06C",
"9. c #DAB16D",
"0. c #DBB36D",
"q. c #D8B170",
"w. c #D9B371",
"e. c #DAB474",
"r. c #DAB574",
"t. c #8F2E86",
"y. c #B215B2",
"u. c #BE11BE",
"i. c #C70CCA",
"p. c #C80DCA",
"a. c #C80CCB",
"s. c #C90DCB",
"d. c #CC0BCF",
"f. c #CA0DCD",
"g. c #CB0CCE",
"h. c #CD0BD0",
"j. c #DB09DE",
"k. c #DF09E1",
"l. c #DF08E2",
"z. c #E106E5",
"x. c #E107E5",
"c. c #E106E7",
"v. c #E206E6",
"b. c #E207E6",
"n. c #E206E7",
"m. c #E806EC",
"M. c #EE05F2",
"N. c #F105F4",
"B. c #F104F5",
"V. c #F304F7",
"C. c #F503F9",
"Z. c #F404F8",
"A. c #F803FC",
"S. c #F902FD",
"D. c #FA02FE",
"F. c #FB02FF",
"G. c #CDB183",
"H. c #E4C590",
"J. c #E5C590",
"K. c #E9C992",
"L. c #E8C993",
"P. c #EACA93",
/* pixels */
"F.F.F.F.F.F.F.F.F.F.F.F.F.F.F.F.F.F.F.F.F.F.F.F.F.F.F.F.F.F.F.F.",
"F.F.F.F.F.F.F.B.z.z.b.z.z.z.z.z.z.z.z.z.z.b.z.z.B.F.F.F.F.F.F.F.",
"F.F.F.F.F.F.B.t.R W 5 Y ! Q Q Q Q Q Q ! Y 5 W R t.B.F.F.F.F.F.F.",
"F.F.F.F.F.F.z.E L.H.h G.P.K.K.K.K.K.K.P.G.K J.L.E z.F.F.F.F.F.F.",
"F.F.F.F.F.F.z.T e.4.i O.w.q.q.q.q.q.q.w.O.s 6.r.T z.F.F.F.F.F.F.",
"F.F.F.F.F.F.z.N 2.;.% 8 f d d d d d d f 8 > :.2.N z.F.F.F.F.F.F.",
"F.F.F.F.F.F.z.N 2.;.; j H G G G G G G H j * ;.2.N z.F.F.F.F.F.F.",
"F.F.F.F.F.F.z.N 2.;.q [ *.&.&.&.&.&.&.*.[ 3 -.2.N z.F.F.F.F.F.F.",
"F.F.F.F.F.F.z.N 2.;.t X.8.5.5.5.5.5.5.8.X.q -.2.N z.F.F.F.F.F.F.",
"F.F.F.F.F.F.z.N 2.;.t  .5.2.2.2.2.2.2.5. .q -.2.N z.F.F.F.F.F.F.",
"F.F.F.F.F.F.z.N 2.;.t  .5.2.2.2.2.2.2.5. .q -.2.N z.F.F.F.F.F.F.",
"F.F.F.F.F.F.z.N 2.;.t  .5.2.2.2.2.2.2.5. .q -.2.N z.F.F.F.F.F.F.",
"F.F.F.F.F.F.z.N 2.;.t  .5.2.2.2.2.2.2.5. .q ;.8.C z.F.F.F.F.F.F.",
"F.F.F.F.F.F.z.N 2.;.t ..5.2.2.2.2.2.2.5...r %.U 4 x.F.F.F.F.F.F.",
"F.F.F.F.F.F.z.N 2.;.r } -.=.=.=.=.=.=.-.} q F ( D u.F.F.F.F.F.F.",
"F.F.F.F.F.F.z.N 2.;.$ # 2 1 1 1 1 1 1 2 # = u / ^ y.F.F.F.F.F.F.",
"F.F.F.F.F.F.z.N 2.;.0 ] o.............o.` p J   . j.F.F.F.F.F.F.",
"F.F.F.F.F.F.z.N 2.;.t $.0.9.9.9.9.9.9.0.#.g I ~ l c.F.F.F.F.F.F.",
"F.F.F.F.F.F.z.N 2.;.: A P L L L L L L P A e ' o X n.F.F.F.F.F.F.",
"F.F.F.F.F.F.z.N 2.;.& O k j j j j j j k O & =.{ 6 v.F.F.F.F.F.F.",
"F.F.F.F.F.F.z.N 2.;.9 ) @.+.+.+.+.+.+.@.) < ;.7.V z.F.F.F.F.F.F.",
"F.F.F.F.F.F.z.N 2.;.t X.7.5.5.5.5.5.5.7.X.q -.2.N z.F.F.F.F.F.F.",
"F.F.F.F.F.F.z.N 2.;.t  .5.2.2.2.2.2.2.5. .q -.2.N z.F.F.F.F.F.F.",
"F.F.F.F.F.F.z.N 2.;.t  .5.2.2.2.2.2.2.5. .q -.2.N z.F.F.F.F.F.F.",
"F.F.F.F.F.F.z.N 2.;.t X.8.5.5.5.5.5.5.8.X.w -.2.N z.F.F.F.F.F.F.",
"F.F.F.F.F.F.z.N 2.;.0 _ ..| | | | | | .._ 2 -.2.N z.F.F.F.F.F.F.",
"F.F.F.F.F.F.z.N 2.;.- y S Z Z Z Z Z Z S y , >.2.N z.F.F.F.F.F.F.",
"F.F.F.F.F.F.z.B 2.;.t | 3.1.1.1.1.1.1.3.| a >.2.B z.F.F.F.F.F.F.",
"F.F.F.F.F.F.z.M <.;.t  .5.2.2.2.2.2.2.5. .p >.,.M z.F.F.F.F.F.F.",
"F.F.F.F.F.F.m.z v b + 7 m m m m m m m m 7 @ n c x m.F.F.F.F.F.F.",
"F.F.F.F.F.D.N.k.d.g.f.s.a.p.p.i.i.p.p.a.s.f.g.h.l.N.D.F.F.F.F.F.",
"F.F.F.F.F.F.F.F.S.A.C.Z.V.N.M.M.M.M.N.V.Z.C.A.D.F.F.F.F.F.F.F.F."
};
