/* XPM */
static char *result[] = {
/* columns rows colors chars-per-pixel */
"32 32 162 2 ",
"   c #120E0C",
".  c #18110F",
"X  c #170C16",
"o  c #180917",
"O  c #1D081A",
"+  c #1D1313",
"@  c #1B1517",
"#  c #1B1B1B",
"$  c #23061F",
"%  c #231A14",
"&  c #261A15",
"*  c #2A1D16",
"=  c #24131B",
"-  c #2D171A",
";  c #221D19",
":  c #2A231C",
">  c #322017",
",  c #342119",
"<  c #3C251C",
"1  c #3B2C1F",
"2  c #230620",
"3  c #2C0C26",
"4  c #2A0029",
"5  c #2F0C2B",
"6  c #300F29",
"7  c #2E1326",
"8  c #281B29",
"9  c #33132C",
"0  c #380737",
"q  c #360D35",
"w  c #3D053C",
"e  c #370F39",
"r  c #232425",
"t  c #292520",
"y  c #2D2A26",
"u  c #2C242F",
"i  c #2D2D2C",
"p  c #352D25",
"a  c #312E2B",
"s  c #3F3224",
"d  c #3F3428",
"f  c #2E2A31",
"g  c #333536",
"h  c #37393A",
"j  c #41271D",
"k  c #43291E",
"l  c #433323",
"z  c #4E3A27",
"x  c #413429",
"c  c #4A3D2E",
"v  c #573526",
"b  c #583526",
"n  c #613A2A",
"m  c #693F2D",
"M  c #54402A",
"N  c #524332",
"B  c #654C32",
"V  c #734430",
"C  c #794732",
"Z  c #64513D",
"A  c #735638",
"S  c #450544",
"D  c #450844",
"F  c #4A044B",
"G  c #4A084A",
"H  c #570158",
"J  c #5E015F",
"K  c #640365",
"L  c #670169",
"P  c #6B016D",
"I  c #720174",
"U  c #760178",
"Y  c #7B017D",
"T  c #3E4041",
"R  c #424445",
"E  c #46484A",
"W  c #515254",
"Q  c #5B5C5E",
"!  c #6B5742",
"~  c #735E47",
"^  c #776048",
"/  c #7B644B",
"(  c #6D7071",
")  c #74787B",
"_  c #824C35",
"`  c #836748",
"'  c #936F49",
"]  c #977149",
"[  c #9D764D",
"{  c #866D52",
"}  c #8E7254",
"|  c #907353",
" . c #917659",
".. c #977958",
"X. c #B66A49",
"o. c #B86B4A",
"O. c #A0774E",
"+. c #A1794F",
"@. c #A57D51",
"#. c #C06F4E",
"$. c #C3714F",
"%. c #AE865B",
"&. c #B58959",
"*. c #9F8160",
"=. c #A38462",
"-. c #AB8A67",
";. c #AC8A64",
":. c #B2906B",
">. c #B9946D",
",. c #BA9770",
"<. c #C39361",
"1. c #C59E74",
"2. c #C89F71",
"3. c #C6A077",
"4. c #C9A379",
"5. c #E1AD75",
"6. c #E5B078",
"7. c #7F0181",
"8. c #820184",
"9. c #870189",
"0. c #8A018C",
"q. c #8F0191",
"w. c #940196",
"e. c #960198",
"r. c #9A019C",
"t. c #9E01A1",
"y. c #A301A6",
"u. c #A901AC",
"i. c #AE01B1",
"p. c #B101B4",
"a. c #BB01BE",
"s. c #BE02C1",
"d. c #C202C5",
"f. c #C602C9",
"g. c #CB02CE",
"h. c #CE02D1",
"j. c #D202D5",
"k. c #D702DA",
"l. c #DA02DD",
"z. c #DD02E1",
"x. c #E102E5",
"c. c #E502E9",
"v. c #EA02EE",
"b. c #EE02F2",
"n. c #F102F5",
"m. c #F602FA",
"M. c #FB02FF",
"N. c #848688",
"B. c #939699",
"V. c #A0A5A8",
"C. c #B5B8BC",
"Z. c #D5AC80",
"A. c #E2B687",
"S. c #EEBB85",
"D. c #E6BA8A",
"F. c #EBBD8C",
"G. c #F1BE89",
"H. c #EFC08F",
"J. c #F0C08D",
"K. c #F2C390",
"L. c #C6CBCF",
"P. c #F0F5F9",
/* pixels */
"M.M.M.M.M.M.M.M.M.M.M.M.M.M.M.M.M.M.M.M.M.M.M.M.M.M.M.M.M.M.M.M.",
"M.M.M.M.M.M.M.M.M.M.M.M.M.M.M.M.M.M.M.M.M.M.M.M.M.M.M.M.M.M.M.M.",
"M.M.M.M.M.M.M.M.M.M.M.M.M.M.M.M.M.M.M.M.M.M.M.M.M.M.M.M.M.M.M.M.",
"M.M.M.M.M.M.n.b.M.M.M.M.M.M.M.M.M.M.M.M.M.M.M.M.M.M.M.M.M.M.M.M.",
"M.M.M.M.M.l.0.I j.n.z.M.M.M.M.M.M.M.M.M.M.M.M.M.M.M.M.M.M.M.M.M.",
"M.M.M.M.M.w.8.e.Y f.H v.M.M.M.M.M.M.n.y.j.m.M.M.v.0.z.M.M.M.M.M.",
"M.M.M.M.M.w.I 8.7.b.k.M.M.M.M.M.M.b.U 8.Y p.M.M.v.0.x.M.M.M.M.M.",
"M.M.M.M.M.c.y.8.u.k.M.M.M.M.M.M.M.n.I f.q.p.j.w.u.b.M.M.M.M.M.M.",
"M.M.M.M.M.M.M.0.8 e s.M.M.M.m.u.i.b.y.P w.q.e E f P n.M.M.M.M.M.",
"M.M.M.M.M.M.p.O Q ) e g.M.m.q.8 @ q.m.z.x.G ) P.L.f u.M.M.M.M.M.",
"M.M.M.M.M.g.q N t B.( F s.w.u E ; = t.M.b.0 R N.W # r.M.M.M.M.M.",
"M.M.M.M.M.P Z F.| y C.W u o W t =.' D b.h.7 : h ; 1 P M.M.M.M.M.",
"M.M.M.M.g.0 =.H.D.l Q V.) r T Z J.<.7 u.8.x ! @ s ] 0 f.M.M.M.M.",
"M.M.M.a.3   =.A.Z.%.% % * # g / J.<.. - + x 4.~ ;.+.  3 a.M.M.M.",
"M.M.M.w.< ,  .c t %.l C X.t g ~ G.<.* o.V d D.4.6.[ > v P M.M.M.",
"M.M.M.w.k , ^ y g A l _ #.: i ^ J.<.* #.C d A.N ..[ > V P M.M.M.",
"M.M.M.w.< , ~ a h A l C o.. ; =.S.<.* X.V d D.Z.Z.[ > v I M.M.M.",
"M.M.M.d.5    .p ; [ l + - + -./ c [ + - + d D.F.S.O.  5 a.M.M.M.",
"M.M.M.M.h.0 =.4.,.6.l 7.u.7 -.t r M 7 u.7.d D.F.S.[ 0 j.M.M.M.M.",
"M.M.M.M.n.D =.K.F.6.l y.x.9 =.y R z 9 x.y.d D.F.S.[ S n.M.M.M.M.",
"M.M.M.M.b.D =.J.F.6.l t.l.9 =.p T z 9 l.t.x D.F.S.[ S b.M.M.M.M.",
"M.M.M.z.L o =.F.F.6.l 4 w + :.p @ B + w 4 x D.D.S.O.X J z.M.M.M.",
"M.M.M.r.* & =.H.F.6.l v _ ; 4.,.} &.% _ b x D.H.S.[ % < 8.M.M.M.",
"M.M.M.w.k , =.-.~ 6.l C $.; 4.} } <.> $._ x A.^ %.+., m P M.M.M.",
"M.M.M.w.k > =.>.` 5.l _ $.> 4.*...<.* $._ x A.{ >.O.< m K M.M.M.",
"M.M.M.y.& % =.K.J.6.l j n @ 4.H.G.<.% n j x D.G.G.+.+ > q.M.M.M.",
"M.M.M.v.9.2 { 4.3.>.1 F J = -.3.1.@.= J S p 1.1.2.` $ 7.c.M.M.M.",
"M.M.M.M.M.0.5 9 9 6 S l.b.K 6 9 9 6 K n.l.F 9 9 9 3 9.M.M.M.M.M.",
"M.M.M.M.M.m.z.z.z.z.v.M.M.n.z.z.z.z.n.M.M.v.z.z.z.x.m.M.M.M.M.M.",
"M.M.M.M.M.M.M.M.M.M.M.M.M.M.M.M.M.M.M.M.M.M.M.M.M.M.M.M.M.M.M.M.",
"M.M.M.M.M.M.M.M.M.M.M.M.M.M.M.M.M.M.M.M.M.M.M.M.M.M.M.M.M.M.M.M.",
"M.M.M.M.M.M.M.M.M.M.M.M.M.M.M.M.M.M.M.M.M.M.M.M.M.M.M.M.M.M.M.M."
};
